<?xml version="1.0" encoding="UTF-8"?>
<svg width="246px" height="280px" viewBox="0 0 246 280" version="1.1" xmlns="http://www.w3.org/2000/svg" xmlns:xlink="http://www.w3.org/1999/xlink">
    <title>Wealthbox Icon/1 Blue</title>
    <defs>
        <path d="M115.314422,2.51765625 C117.693703,1.14351563 120.345891,0.455484375 123.001922,0.455484375 C125.654109,0.455484375 128.310141,1.14351563 130.6875,2.51765625 L238.3125,64.6537969 C243.069141,67.3982344 246,72.4758281 246,77.9685469 L246,202.238906 C246,207.731625 243.069141,212.807297 238.3125,215.553656 L130.689422,277.693641 C125.930859,280.44 120.071062,280.44 115.3125,277.693641 L7.6875,215.553656 C2.93085938,212.807297 0,207.731625 0,202.238906 L0,77.9685469 C0,72.4758281 2.93085938,67.3982344 7.6875,64.6537969 L115.314422,2.51765625 Z M119.158172,244.589344 C120.345891,245.275453 121.673906,245.617547 123.001922,245.617547 C124.328016,245.617547 125.654109,245.275453 126.84375,244.589344 L211.40625,195.769875 C213.783609,194.397656 215.25,191.858859 215.25,189.1125 L215.25,91.48125 C215.25,88.7310469 213.783609,86.1941719 211.40625,84.8219531 L126.84375,36.0063281 C124.464469,34.6302656 121.535531,34.6302656 119.15625,36.0063281 L34.59375,84.8219531 C32.2144688,86.1941719 30.75,88.7310469 30.75,91.48125 L30.75,189.1125 C30.75,191.858859 32.2144688,194.397656 34.59375,195.769875 L119.158172,244.589344 Z M169.125,166.926375 L169.125,78.151125 L197.953125,94.7907188 C199.142766,95.47875 199.875,96.7471875 199.875,98.1213281 L199.875,182.451281 C199.875,183.827344 199.142766,185.093859 197.953125,185.781891 L169.125,202.425328 L123.001922,175.793906 L76.875,202.425328 L48.046875,185.781891 C46.8572344,185.093859 46.125,183.827344 46.125,182.451281 L46.125,98.1213281 C46.125,96.7471875 46.8572344,95.47875 48.046875,94.7907188 L76.875,78.151125 L76.875,166.928297 L123.001922,140.296875 L169.125,166.926375 Z" id="path-1"></path>
    </defs>
    <g id="Wealthbox-Icon/1-Blue" stroke="none" stroke-width="1" fill="none" fill-rule="evenodd">
        <g id="Wealthbox-icon--blue">
            <mask id="mask-2" fill="white">
                <use xlink:href="#path-1"></use>
            </mask>
            <g id="path-1"></g>
            <g id="Rectangle" mask="url(#mask-2)" fill="#0767D0" fill-rule="nonzero">
                <rect id="Rectangle-path" x="0" y="0" width="246" height="280"></rect>
            </g>
        </g>
    </g>
</svg>